<mxfile host="app.diagrams.net" agent="Mozilla/5.0 (Windows NT 10.0; Win64; x64) AppleWebKit/537.36 (KHTML, like Gecko) Chrome/132.0.0.0 Safari/537.36" version="26.0.10">
  <diagram name="Page-1" id="24YDpVziIG8_QqVgO1ZK">
    <mxGraphModel dx="1235" dy="594" grid="1" gridSize="10" guides="1" tooltips="1" connect="1" arrows="1" fold="1" page="1" pageScale="1" pageWidth="850" pageHeight="1100" math="0" shadow="0">
      <root>
        <mxCell id="0" />
        <mxCell id="1" parent="0" />
        <mxCell id="WnxE_0I-OGD6MjOSD7vg-1" value="" style="rounded=0;whiteSpace=wrap;html=1;" vertex="1" parent="1">
          <mxGeometry x="270" y="170" width="340" height="450" as="geometry" />
        </mxCell>
        <mxCell id="WnxE_0I-OGD6MjOSD7vg-2" value="" style="rounded=1;whiteSpace=wrap;html=1;" vertex="1" parent="1">
          <mxGeometry x="305" y="195" width="260" height="400" as="geometry" />
        </mxCell>
        <mxCell id="WnxE_0I-OGD6MjOSD7vg-3" value="" style="rounded=1;whiteSpace=wrap;html=1;" vertex="1" parent="1">
          <mxGeometry x="325" y="210" width="220" height="320" as="geometry" />
        </mxCell>
        <mxCell id="WnxE_0I-OGD6MjOSD7vg-4" value="Вход в информационната система" style="rounded=0;whiteSpace=wrap;html=1;" vertex="1" parent="1">
          <mxGeometry x="355" y="230" width="160" height="40" as="geometry" />
        </mxCell>
        <mxCell id="WnxE_0I-OGD6MjOSD7vg-5" value="Потребителско име:" style="rounded=1;whiteSpace=wrap;html=1;" vertex="1" parent="1">
          <mxGeometry x="340" y="300" width="190" height="30" as="geometry" />
        </mxCell>
        <mxCell id="WnxE_0I-OGD6MjOSD7vg-7" value="" style="ellipse;whiteSpace=wrap;html=1;aspect=fixed;" vertex="1" parent="1">
          <mxGeometry x="415" y="540" width="40" height="40" as="geometry" />
        </mxCell>
        <mxCell id="WnxE_0I-OGD6MjOSD7vg-8" value="ВХОД" style="rounded=0;whiteSpace=wrap;html=1;" vertex="1" parent="1">
          <mxGeometry x="340" y="470" width="70" height="50" as="geometry" />
        </mxCell>
        <mxCell id="WnxE_0I-OGD6MjOSD7vg-11" value="john_cavanaugh" style="rounded=1;whiteSpace=wrap;html=1;" vertex="1" parent="1">
          <mxGeometry x="340" y="330" width="190" height="30" as="geometry" />
        </mxCell>
        <mxCell id="WnxE_0I-OGD6MjOSD7vg-12" value="Парола:" style="rounded=1;whiteSpace=wrap;html=1;" vertex="1" parent="1">
          <mxGeometry x="340" y="370" width="190" height="30" as="geometry" />
        </mxCell>
        <mxCell id="WnxE_0I-OGD6MjOSD7vg-13" value="**********" style="rounded=1;whiteSpace=wrap;html=1;" vertex="1" parent="1">
          <mxGeometry x="340" y="400" width="190" height="30" as="geometry" />
        </mxCell>
        <mxCell id="WnxE_0I-OGD6MjOSD7vg-14" value="Регистрация" style="rounded=0;whiteSpace=wrap;html=1;" vertex="1" parent="1">
          <mxGeometry x="460" y="470" width="70" height="50" as="geometry" />
        </mxCell>
        <mxCell id="WnxE_0I-OGD6MjOSD7vg-15" value="&lt;i&gt;&lt;font style=&quot;font-size: 11px;&quot;&gt;Забравена парола&lt;/font&gt;&lt;/i&gt;" style="rounded=0;whiteSpace=wrap;html=1;" vertex="1" parent="1">
          <mxGeometry x="415" y="430" width="115" height="20" as="geometry" />
        </mxCell>
      </root>
    </mxGraphModel>
  </diagram>
</mxfile>
